<svg width="30" height="24" viewBox="0 0 30 24" fill="none" xmlns="http://www.w3.org/2000/svg">
<path d="M28.8125 0.3125H1.1875C0.599805 0.3125 0.125 0.787305 0.125 1.375V22.625C0.125 23.2127 0.599805 23.6875 1.1875 23.6875H28.8125C29.4002 23.6875 29.875 23.2127 29.875 22.625V1.375C29.875 0.787305 29.4002 0.3125 28.8125 0.3125ZM26.1297 3.92832L15.6541 12.0797C15.3951 12.2822 15.0332 12.2822 14.7742 12.0797L4.29531 3.92832C4.25581 3.89784 4.22684 3.85575 4.21245 3.80798C4.19807 3.7602 4.199 3.70911 4.21511 3.66189C4.23121 3.61466 4.26169 3.57366 4.30228 3.54463C4.34286 3.5156 4.39151 3.49999 4.44141 3.5H25.9836C26.0335 3.49999 26.0821 3.5156 26.1227 3.54463C26.1633 3.57366 26.1938 3.61466 26.2099 3.66189C26.226 3.70911 26.2269 3.7602 26.2125 3.80798C26.1982 3.85575 26.1692 3.89784 26.1297 3.92832Z" fill="#9AB5DE"/>
</svg>
