<svg width="24" height="25" viewBox="0 0 24 25" fill="none" xmlns="http://www.w3.org/2000/svg">
<path d="M23.04 0H0.96C0.429 0 0 0.446875 0 1V24C0 24.5531 0.429 25 0.96 25H23.04C23.571 25 24 24.5531 24 24V1C24 0.446875 23.571 0 23.04 0ZM20.268 7.29688H18.351C16.848 7.29688 16.557 8.04062 16.557 9.13437V11.5437H20.145L19.677 15.3156H16.557V25H12.816V15.3188H9.687V11.5437H12.816V8.7625C12.816 5.53437 14.709 3.775 17.475 3.775C18.801 3.775 19.938 3.87813 20.271 3.925V7.29688H20.268Z" fill="#9AB5DE"/>
</svg>
