<svg width="27" height="22" viewBox="0 0 27 22" fill="none" xmlns="http://www.w3.org/2000/svg">
<path d="M26.5834 2.75976C25.6093 3.19143 24.5628 3.48309 23.4626 3.61493C24.5978 2.93568 25.447 1.86664 25.8519 0.60726C24.7854 1.24075 23.6182 1.68665 22.4009 1.92559C21.5824 1.0516 20.4982 0.472308 19.3166 0.277647C18.1351 0.0829859 16.9224 0.28385 15.8667 0.849055C14.811 1.41426 13.9715 2.31218 13.4784 3.40341C12.9854 4.49465 12.8664 5.71814 13.1399 6.88393C10.9789 6.77542 8.86483 6.21374 6.93492 5.23532C5.00502 4.2569 3.30241 2.88362 1.93759 1.20459C1.47093 2.00959 1.20259 2.94293 1.20259 3.93693C1.20207 4.83176 1.42243 5.71288 1.84412 6.50212C2.26581 7.29135 2.87578 7.96431 3.61993 8.46126C2.75692 8.4338 1.91295 8.20061 1.15826 7.78109V7.85109C1.15817 9.10612 1.5923 10.3225 2.38697 11.2939C3.18165 12.2653 4.28793 12.9318 5.51809 13.1804C4.71751 13.3971 3.87815 13.429 3.06343 13.2738C3.41051 14.3536 4.08659 15.298 4.99702 15.9745C5.90746 16.6511 7.00666 17.026 8.14076 17.0468C6.21557 18.5581 3.83796 19.3779 1.39043 19.3743C0.956872 19.3744 0.523683 19.3491 0.0930939 19.2984C2.57748 20.8958 5.46949 21.7436 8.42309 21.7403C18.4214 21.7403 23.8873 13.4593 23.8873 6.27726C23.8873 6.04393 23.8814 5.80826 23.8709 5.57493C24.9341 4.80606 25.8518 3.85397 26.5811 2.76326L26.5834 2.75976Z" fill="#9AB5DE"/>
</svg>
